<?xml version="1.0" standalone="no"?>
<!DOCTYPE svg PUBLIC "-//W3C//DTD SVG 20010904//EN"
 "http://www.w3.org/TR/2001/REC-SVG-20010904/DTD/svg10.dtd">
<svg version="1.0" xmlns="http://www.w3.org/2000/svg"
 width="700.000000pt" height="700.000000pt" viewBox="0 0 700.000000 700.000000"
 preserveAspectRatio="xMidYMid meet">
<metadata>
Created by potrace 1.11, written by Peter Selinger 2001-2013
</metadata>
<g transform="translate(0.000000,700.000000) scale(0.100000,-0.100000)"
fill="#000000" stroke="none">
<path d="M3427 6734 c-1 -1 -42 -4 -92 -7 -152 -8 -343 -81 -494 -187 -96 -68
-220 -189 -1151 -1120 -1208 -1209 -1264 -1270 -1352 -1480 -80 -191 -80 -192
-84 -415 -4 -215 6 -275 69 -428 76 -183 132 -261 350 -492 118 -124 889 -907
977 -991 l34 -33 -23 -103 c-32 -145 -98 -308 -174 -433 -85 -140 -161 -244
-367 -505 -49 -63 -90 -120 -90 -127 0 -19 88 -39 250 -57 25 -3 68 -8 95 -11
28 -3 75 -8 105 -10 66 -6 439 -6 494 0 22 2 69 6 105 10 36 3 73 8 81 10 8 3
31 7 50 9 42 6 75 13 100 21 10 3 29 8 42 10 50 10 255 78 298 100 80 40 78
40 185 -31 124 -82 167 -104 280 -142 99 -33 133 -41 215 -49 111 -12 331 -6
423 12 15 3 37 7 50 9 12 2 58 16 102 31 180 60 263 127 758 615 298 293 1490
1488 1597 1600 204 214 311 340 356 420 30 53 79 188 90 245 3 22 9 49 12 60
9 38 11 400 1 460 -14 94 -58 234 -91 293 -96 171 -211 292 -1420 1499 -811
810 -873 870 -1018 991 -175 147 -324 204 -560 218 -148 8 -201 10 -203 8z
m292 -504 c182 -61 167 -48 1335 -1216 900 -901 1022 -1026 1080 -1113 103
-152 137 -386 87 -584 -31 -120 -71 -192 -156 -282 -256 -269 -614 -634 -1155
-1175 -554 -554 -690 -687 -925 -911 -165 -157 -389 -222 -624 -182 -174 29
-297 102 -479 281 l-123 122 -47 -43 c-49 -44 -50 -45 -103 -92 -118 -105
-345 -206 -547 -245 -94 -18 -125 -23 -257 -36 -68 -7 -69 -12 17 80 26 28 48
54 48 58 0 4 6 13 13 20 21 22 92 140 121 202 85 183 142 478 127 652 -1 5
-35 46 -77 90 -196 203 -557 575 -727 748 -483 489 -508 520 -564 685 -22 64
-26 96 -28 201 -1 76 4 148 12 184 30 130 111 257 272 426 214 224 1630 1634
1881 1873 169 161 225 205 300 237 101 43 137 48 300 45 128 -2 166 -7 219
-25z"/>
<path d="M3817 4534 c-169 -40 -347 -185 -424 -344 -22 -47 -46 -107 -53 -135
-11 -49 -15 -229 -5 -290 3 -16 8 -46 11 -65 8 -50 70 -170 121 -234 73 -94
208 -188 319 -221 68 -20 356 -19 426 2 166 48 318 181 406 354 39 78 44 105
44 284 1 166 -3 187 -49 285 -81 171 -234 305 -404 354 -78 23 -314 28 -392
10z"/>
<path d="M2479 3761 c-159 -40 -327 -216 -354 -371 -8 -47 -9 -210 -1 -251 34
-167 206 -341 375 -378 71 -15 226 -11 296 8 62 17 133 57 186 104 40 36 110
128 127 167 38 88 50 228 30 345 -30 174 -192 342 -367 381 -63 14 -229 11
-292 -5z"/>
</g>
</svg>
